<?xml version="1.0" encoding="UTF-8" standalone="no"?>
<!DOCTYPE svg PUBLIC "-//W3C//DTD SVG 1.1//EN"
 "http://www.w3.org/Graphics/SVG/1.1/DTD/svg11.dtd">
<!-- Generated by graphviz version 2.38.0 (20140413.2041)
 -->
<!-- Title: G Pages: 1 -->
<svg width="526pt" height="670pt"
 viewBox="0.00 0.00 526.00 670.00" xmlns="http://www.w3.org/2000/svg" xmlns:xlink="http://www.w3.org/1999/xlink">
<g id="graph0" class="graph" transform="scale(1 1) rotate(0) translate(4 666)">
<title>G</title>
<polygon fill="white" stroke="none" points="-4,4 -4,-666 522,-666 522,4 -4,4"/>
<g id="clust1" class="cluster"><title>cluster_Global</title>
<path fill="none" stroke="gray" d="M20,-8C20,-8 498,-8 498,-8 504,-8 510,-14 510,-20 510,-20 510,-642 510,-642 510,-648 504,-654 498,-654 498,-654 20,-654 20,-654 14,-654 8,-648 8,-642 8,-642 8,-20 8,-20 8,-14 14,-8 20,-8"/>
<text text-anchor="middle" x="259" y="-641.2" font-family="Times,serif" font-size="11.00" fill="gray">Global</text>
</g>
<g id="clust2" class="cluster"><title>cluster_\Teknoo</title>
<path fill="none" stroke="gray" d="M28,-16C28,-16 490,-16 490,-16 496,-16 502,-22 502,-28 502,-28 502,-614 502,-614 502,-620 496,-626 490,-626 490,-626 28,-626 28,-626 22,-626 16,-620 16,-614 16,-614 16,-28 16,-28 16,-22 22,-16 28,-16"/>
<text text-anchor="middle" x="259" y="-613.2" font-family="Times,serif" font-size="11.00" fill="gray">Teknoo</text>
</g>
<g id="clust3" class="cluster"><title>cluster_\Teknoo\Paypal</title>
<path fill="none" stroke="gray" d="M36,-24C36,-24 482,-24 482,-24 488,-24 494,-30 494,-36 494,-36 494,-586 494,-586 494,-592 488,-598 482,-598 482,-598 36,-598 36,-598 30,-598 24,-592 24,-586 24,-586 24,-36 24,-36 24,-30 30,-24 36,-24"/>
<text text-anchor="middle" x="259" y="-585.2" font-family="Times,serif" font-size="11.00" fill="gray">Paypal</text>
</g>
<g id="clust4" class="cluster"><title>cluster_\Teknoo\Paypal\Express</title>
<path fill="none" stroke="gray" d="M44,-32C44,-32 474,-32 474,-32 480,-32 486,-38 486,-44 486,-44 486,-558 486,-558 486,-564 480,-570 474,-570 474,-570 44,-570 44,-570 38,-570 32,-564 32,-558 32,-558 32,-44 32,-44 32,-38 38,-32 44,-32"/>
<text text-anchor="middle" x="259" y="-557.2" font-family="Times,serif" font-size="11.00" fill="gray">Express</text>
</g>
<g id="clust5" class="cluster"><title>cluster_\Teknoo\Paypal\Express\Service</title>
<path fill="none" stroke="gray" d="M52,-362C52,-362 452.5,-362 452.5,-362 458.5,-362 464.5,-368 464.5,-374 464.5,-374 464.5,-530 464.5,-530 464.5,-536 458.5,-542 452.5,-542 452.5,-542 52,-542 52,-542 46,-542 40,-536 40,-530 40,-530 40,-374 40,-374 40,-368 46,-362 52,-362"/>
<text text-anchor="middle" x="252.25" y="-529.2" font-family="Times,serif" font-size="11.00" fill="gray">Service</text>
</g>
<g id="clust6" class="cluster"><title>cluster_\Teknoo\Paypal\Express\Entity</title>
<path fill="none" stroke="gray" d="M316,-174C316,-174 466,-174 466,-174 472,-174 478,-180 478,-186 478,-186 478,-342 478,-342 478,-348 472,-354 466,-354 466,-354 316,-354 316,-354 310,-354 304,-348 304,-342 304,-342 304,-186 304,-186 304,-180 310,-174 316,-174"/>
<text text-anchor="middle" x="391" y="-341.2" font-family="Times,serif" font-size="11.00" fill="gray">Entity</text>
</g>
<g id="clust7" class="cluster"><title>cluster_\Teknoo\Paypal\Express\Transport</title>
<path fill="none" stroke="gray" d="M72,-40C72,-40 432.5,-40 432.5,-40 438.5,-40 444.5,-46 444.5,-52 444.5,-52 444.5,-154 444.5,-154 444.5,-160 438.5,-166 432.5,-166 432.5,-166 72,-166 72,-166 66,-166 60,-160 60,-154 60,-154 60,-52 60,-52 60,-46 66,-40 72,-40"/>
<text text-anchor="middle" x="252.25" y="-153.2" font-family="Times,serif" font-size="11.00" fill="gray">Transport</text>
</g>
<!-- \\Teknoo\\Paypal\\Express\\Service\\Error -->
<g id="node1" class="node"><title>\\Teknoo\\Paypal\\Express\\Service\\Error</title>
<polygon fill="none" stroke="black" points="418,-514 364,-514 364,-478 418,-478 418,-514"/>
<text text-anchor="middle" x="391" y="-493.2" font-family="Courier,monospace" font-size="11.00">Error</text>
</g>
<!-- \\Teknoo\\Paypal\\Express\\Service\\ErrorInterface -->
<g id="node4" class="node"><title>\\Teknoo\\Paypal\\Express\\Service\\ErrorInterface</title>
<polygon fill="none" stroke="black" points="199.5,-514 88.5,-514 88.5,-478 199.5,-478 199.5,-514"/>
<text text-anchor="middle" x="144" y="-493.2" font-family="Courier,monospace" font-size="11.00">ErrorInterface</text>
</g>
<!-- \\Teknoo\\Paypal\\Express\\Service\\Error&#45;&gt;\\Teknoo\\Paypal\\Express\\Service\\ErrorInterface -->
<g id="edge1" class="edge"><title>\\Teknoo\\Paypal\\Express\\Service\\Error&#45;&gt;\\Teknoo\\Paypal\\Express\\Service\\ErrorInterface</title>
<path fill="none" stroke="black" stroke-dasharray="1,5" d="M363.781,-496C327.402,-496 260.421,-496 210.117,-496"/>
<polygon fill="none" stroke="black" points="209.973,-492.5 199.973,-496 209.973,-499.5 209.973,-492.5"/>
</g>
<!-- \\Teknoo\\Paypal\\Express\\Service\\ExpressCheckout -->
<g id="node2" class="node"><title>\\Teknoo\\Paypal\\Express\\Service\\ExpressCheckout</title>
<polygon fill="none" stroke="black" points="450,-460 332,-460 332,-424 450,-424 450,-460"/>
<text text-anchor="middle" x="391" y="-439.2" font-family="Courier,monospace" font-size="11.00">ExpressCheckout</text>
</g>
<!-- \\Teknoo\\Paypal\\Express\\Service\\ServiceInterface -->
<g id="node5" class="node"><title>\\Teknoo\\Paypal\\Express\\Service\\ServiceInterface</title>
<polygon fill="none" stroke="black" points="206.5,-460 81.5,-460 81.5,-424 206.5,-424 206.5,-460"/>
<text text-anchor="middle" x="144" y="-439.2" font-family="Courier,monospace" font-size="11.00">ServiceInterface</text>
</g>
<!-- \\Teknoo\\Paypal\\Express\\Service\\ExpressCheckout&#45;&gt;\\Teknoo\\Paypal\\Express\\Service\\ServiceInterface -->
<g id="edge2" class="edge"><title>\\Teknoo\\Paypal\\Express\\Service\\ExpressCheckout&#45;&gt;\\Teknoo\\Paypal\\Express\\Service\\ServiceInterface</title>
<path fill="none" stroke="black" stroke-dasharray="1,5" d="M331.938,-442C297.533,-442 253.648,-442 217.045,-442"/>
<polygon fill="none" stroke="black" points="216.928,-438.5 206.928,-442 216.928,-445.5 216.928,-438.5"/>
</g>
<!-- \\Teknoo\\Paypal\\Express\\Service\\TransactionResult -->
<g id="node3" class="node"><title>\\Teknoo\\Paypal\\Express\\Service\\TransactionResult</title>
<polygon fill="none" stroke="black" points="456.5,-406 325.5,-406 325.5,-370 456.5,-370 456.5,-406"/>
<text text-anchor="middle" x="391" y="-385.2" font-family="Courier,monospace" font-size="11.00">TransactionResult</text>
</g>
<!-- \\Teknoo\\Paypal\\Express\\Service\\TransactionResultInterface -->
<g id="node6" class="node"><title>\\Teknoo\\Paypal\\Express\\Service\\TransactionResultInterface</title>
<polygon fill="none" stroke="black" points="240,-406 48,-406 48,-370 240,-370 240,-406"/>
<text text-anchor="middle" x="144" y="-385.2" font-family="Courier,monospace" font-size="11.00">TransactionResultInterface</text>
</g>
<!-- \\Teknoo\\Paypal\\Express\\Service\\TransactionResult&#45;&gt;\\Teknoo\\Paypal\\Express\\Service\\TransactionResultInterface -->
<g id="edge3" class="edge"><title>\\Teknoo\\Paypal\\Express\\Service\\TransactionResult&#45;&gt;\\Teknoo\\Paypal\\Express\\Service\\TransactionResultInterface</title>
<path fill="none" stroke="black" stroke-dasharray="1,5" d="M325.309,-388C302.28,-388 275.714,-388 250.174,-388"/>
<polygon fill="none" stroke="black" points="250.069,-384.5 240.069,-388 250.069,-391.5 250.069,-384.5"/>
</g>
<!-- \\Teknoo\\Paypal\\Express\\Entity\\PurchaseItemInterface -->
<g id="node7" class="node"><title>\\Teknoo\\Paypal\\Express\\Entity\\PurchaseItemInterface</title>
<polygon fill="none" stroke="black" points="470,-326 312,-326 312,-290 470,-290 470,-326"/>
<text text-anchor="middle" x="391" y="-305.2" font-family="Courier,monospace" font-size="11.00">PurchaseItemInterface</text>
</g>
<!-- \\Teknoo\\Paypal\\Express\\Entity\\ConsumerInterface -->
<g id="node8" class="node"><title>\\Teknoo\\Paypal\\Express\\Entity\\ConsumerInterface</title>
<polygon fill="none" stroke="black" points="456.5,-272 325.5,-272 325.5,-236 456.5,-236 456.5,-272"/>
<text text-anchor="middle" x="391" y="-251.2" font-family="Courier,monospace" font-size="11.00">ConsumerInterface</text>
</g>
<!-- \\Teknoo\\Paypal\\Express\\Entity\\PurchaseInterface -->
<g id="node9" class="node"><title>\\Teknoo\\Paypal\\Express\\Entity\\PurchaseInterface</title>
<polygon fill="none" stroke="black" points="456.5,-218 325.5,-218 325.5,-182 456.5,-182 456.5,-218"/>
<text text-anchor="middle" x="391" y="-197.2" font-family="Courier,monospace" font-size="11.00">PurchaseInterface</text>
</g>
<!-- \\Teknoo\\Paypal\\Express\\Transport\\Curl93 -->
<g id="node10" class="node"><title>\\Teknoo\\Paypal\\Express\\Transport\\Curl93</title>
<polygon fill="none" stroke="black" points="419.5,-138 362.5,-138 362.5,-102 419.5,-102 419.5,-138"/>
<text text-anchor="middle" x="391" y="-117.2" font-family="Courier,monospace" font-size="11.00">Curl93</text>
</g>
<!-- \\Teknoo\\Paypal\\Express\\Transport\\TransportInterface -->
<g id="node13" class="node"><title>\\Teknoo\\Paypal\\Express\\Transport\\TransportInterface</title>
<polygon fill="none" stroke="black" points="213,-138 75,-138 75,-102 213,-102 213,-138"/>
<text text-anchor="middle" x="144" y="-117.2" font-family="Courier,monospace" font-size="11.00">TransportInterface</text>
</g>
<!-- \\Teknoo\\Paypal\\Express\\Transport\\Curl93&#45;&gt;\\Teknoo\\Paypal\\Express\\Transport\\TransportInterface -->
<g id="edge4" class="edge"><title>\\Teknoo\\Paypal\\Express\\Transport\\Curl93&#45;&gt;\\Teknoo\\Paypal\\Express\\Transport\\TransportInterface</title>
<path fill="none" stroke="black" stroke-dasharray="1,5" d="M362.372,-120C328.911,-120 271.116,-120 223.529,-120"/>
<polygon fill="none" stroke="black" points="223.232,-116.5 213.232,-120 223.232,-123.5 223.232,-116.5"/>
</g>
<!-- \\Teknoo\\Paypal\\Express\\Transport\\ArgumentBag -->
<g id="node11" class="node"><title>\\Teknoo\\Paypal\\Express\\Transport\\ArgumentBag</title>
<polygon fill="none" stroke="black" points="436.5,-84 345.5,-84 345.5,-48 436.5,-48 436.5,-84"/>
<text text-anchor="middle" x="391" y="-63.2" font-family="Courier,monospace" font-size="11.00">ArgumentBag</text>
</g>
<!-- \\Teknoo\\Paypal\\Express\\Transport\\ArgumentBagInterface -->
<g id="node12" class="node"><title>\\Teknoo\\Paypal\\Express\\Transport\\ArgumentBagInterface</title>
<polygon fill="none" stroke="black" points="220,-84 68,-84 68,-48 220,-48 220,-84"/>
<text text-anchor="middle" x="144" y="-63.2" font-family="Courier,monospace" font-size="11.00">ArgumentBagInterface</text>
</g>
<!-- \\Teknoo\\Paypal\\Express\\Transport\\ArgumentBag&#45;&gt;\\Teknoo\\Paypal\\Express\\Transport\\ArgumentBagInterface -->
<g id="edge5" class="edge"><title>\\Teknoo\\Paypal\\Express\\Transport\\ArgumentBag&#45;&gt;\\Teknoo\\Paypal\\Express\\Transport\\ArgumentBagInterface</title>
<path fill="none" stroke="black" stroke-dasharray="1,5" d="M345.348,-66C313.293,-66 269.096,-66 230.367,-66"/>
<polygon fill="none" stroke="black" points="230.128,-62.5001 220.128,-66 230.128,-69.5001 230.128,-62.5001"/>
</g>
</g>
</svg>
