<?xml version="1.0" encoding="UTF-8" standalone="no"?>
<!DOCTYPE svg PUBLIC "-//W3C//DTD SVG 1.1//EN"
 "http://www.w3.org/Graphics/SVG/1.1/DTD/svg11.dtd">
<!-- Generated by graphviz version 2.38.0 (20140413.2041)
 -->
<!-- Title: G Pages: 1 -->
<svg width="499pt" height="616pt"
 viewBox="0.00 0.00 499.00 616.00" xmlns="http://www.w3.org/2000/svg" xmlns:xlink="http://www.w3.org/1999/xlink">
<g id="graph0" class="graph" transform="scale(1 1) rotate(0) translate(4 612)">
<title>G</title>
<polygon fill="white" stroke="none" points="-4,4 -4,-612 495,-612 495,4 -4,4"/>
<g id="clust1" class="cluster"><title>cluster_Global</title>
<path fill="none" stroke="gray" d="M20,-8C20,-8 471,-8 471,-8 477,-8 483,-14 483,-20 483,-20 483,-588 483,-588 483,-594 477,-600 471,-600 471,-600 20,-600 20,-600 14,-600 8,-594 8,-588 8,-588 8,-20 8,-20 8,-14 14,-8 20,-8"/>
<text text-anchor="middle" x="245.5" y="-587.2" font-family="Times,serif" font-size="11.00" fill="gray">Global</text>
</g>
<g id="clust2" class="cluster"><title>cluster_\Teknoo</title>
<path fill="none" stroke="gray" d="M28,-16C28,-16 463,-16 463,-16 469,-16 475,-22 475,-28 475,-28 475,-560 475,-560 475,-566 469,-572 463,-572 463,-572 28,-572 28,-572 22,-572 16,-566 16,-560 16,-560 16,-28 16,-28 16,-22 22,-16 28,-16"/>
<text text-anchor="middle" x="245.5" y="-559.2" font-family="Times,serif" font-size="11.00" fill="gray">Teknoo</text>
</g>
<g id="clust3" class="cluster"><title>cluster_\Teknoo\Paypal</title>
<path fill="none" stroke="gray" d="M36,-24C36,-24 455,-24 455,-24 461,-24 467,-30 467,-36 467,-36 467,-532 467,-532 467,-538 461,-544 455,-544 455,-544 36,-544 36,-544 30,-544 24,-538 24,-532 24,-532 24,-36 24,-36 24,-30 30,-24 36,-24"/>
<text text-anchor="middle" x="245.5" y="-531.2" font-family="Times,serif" font-size="11.00" fill="gray">Paypal</text>
</g>
<g id="clust4" class="cluster"><title>cluster_\Teknoo\Paypal\Express</title>
<path fill="none" stroke="gray" d="M44,-32C44,-32 447,-32 447,-32 453,-32 459,-38 459,-44 459,-44 459,-504 459,-504 459,-510 453,-516 447,-516 447,-516 44,-516 44,-516 38,-516 32,-510 32,-504 32,-504 32,-44 32,-44 32,-38 38,-32 44,-32"/>
<text text-anchor="middle" x="245.5" y="-503.2" font-family="Times,serif" font-size="11.00" fill="gray">Express</text>
</g>
<g id="clust5" class="cluster"><title>cluster_\Teknoo\Paypal\Express\Entity</title>
<path fill="none" stroke="gray" d="M316,-362C316,-362 439,-362 439,-362 445,-362 451,-368 451,-374 451,-374 451,-476 451,-476 451,-482 445,-488 439,-488 439,-488 316,-488 316,-488 310,-488 304,-482 304,-476 304,-476 304,-374 304,-374 304,-368 310,-362 316,-362"/>
<text text-anchor="middle" x="377.5" y="-475.2" font-family="Times,serif" font-size="11.00" fill="gray">Entity</text>
</g>
<g id="clust6" class="cluster"><title>cluster_\Teknoo\Paypal\Express\Transport</title>
<path fill="none" stroke="gray" d="M72,-228C72,-228 419,-228 419,-228 425,-228 431,-234 431,-240 431,-240 431,-342 431,-342 431,-348 425,-354 419,-354 419,-354 72,-354 72,-354 66,-354 60,-348 60,-342 60,-342 60,-240 60,-240 60,-234 66,-228 72,-228"/>
<text text-anchor="middle" x="245.5" y="-341.2" font-family="Times,serif" font-size="11.00" fill="gray">Transport</text>
</g>
<g id="clust7" class="cluster"><title>cluster_\Teknoo\Paypal\Express\Service</title>
<path fill="none" stroke="gray" d="M52,-40C52,-40 439,-40 439,-40 445,-40 451,-46 451,-52 451,-52 451,-208 451,-208 451,-214 445,-220 439,-220 439,-220 52,-220 52,-220 46,-220 40,-214 40,-208 40,-208 40,-52 40,-52 40,-46 46,-40 52,-40"/>
<text text-anchor="middle" x="245.5" y="-207.2" font-family="Times,serif" font-size="11.00" fill="gray">Service</text>
</g>
<!-- \\Teknoo\\Paypal\\Express\\Entity\\PurchaseInterface -->
<g id="node1" class="node"><title>\\Teknoo\\Paypal\\Express\\Entity\\PurchaseInterface</title>
<polygon fill="none" stroke="black" points="443,-460 312,-460 312,-424 443,-424 443,-460"/>
<text text-anchor="middle" x="377.5" y="-439.2" font-family="Courier,monospace" font-size="11.00">PurchaseInterface</text>
</g>
<!-- \\Teknoo\\Paypal\\Express\\Entity\\ConsumerInterface -->
<g id="node2" class="node"><title>\\Teknoo\\Paypal\\Express\\Entity\\ConsumerInterface</title>
<polygon fill="none" stroke="black" points="443,-406 312,-406 312,-370 443,-370 443,-406"/>
<text text-anchor="middle" x="377.5" y="-385.2" font-family="Courier,monospace" font-size="11.00">ConsumerInterface</text>
</g>
<!-- \\Teknoo\\Paypal\\Express\\Transport\\Curl93 -->
<g id="node3" class="node"><title>\\Teknoo\\Paypal\\Express\\Transport\\Curl93</title>
<polygon fill="none" stroke="black" points="406,-326 349,-326 349,-290 406,-290 406,-326"/>
<text text-anchor="middle" x="377.5" y="-305.2" font-family="Courier,monospace" font-size="11.00">Curl93</text>
</g>
<!-- \\Teknoo\\Paypal\\Express\\Transport\\TransportInterface -->
<g id="node6" class="node"><title>\\Teknoo\\Paypal\\Express\\Transport\\TransportInterface</title>
<polygon fill="none" stroke="black" points="213,-326 75,-326 75,-290 213,-290 213,-326"/>
<text text-anchor="middle" x="144" y="-305.2" font-family="Courier,monospace" font-size="11.00">TransportInterface</text>
</g>
<!-- \\Teknoo\\Paypal\\Express\\Transport\\Curl93&#45;&gt;\\Teknoo\\Paypal\\Express\\Transport\\TransportInterface -->
<g id="edge1" class="edge"><title>\\Teknoo\\Paypal\\Express\\Transport\\Curl93&#45;&gt;\\Teknoo\\Paypal\\Express\\Transport\\TransportInterface</title>
<path fill="none" stroke="black" stroke-dasharray="1,5" d="M348.576,-308C317.737,-308 266.72,-308 223.475,-308"/>
<polygon fill="none" stroke="black" points="223.239,-304.5 213.238,-308 223.238,-311.5 223.239,-304.5"/>
</g>
<!-- \\Teknoo\\Paypal\\Express\\Transport\\ArgumentBag -->
<g id="node4" class="node"><title>\\Teknoo\\Paypal\\Express\\Transport\\ArgumentBag</title>
<polygon fill="none" stroke="black" points="423,-272 332,-272 332,-236 423,-236 423,-272"/>
<text text-anchor="middle" x="377.5" y="-251.2" font-family="Courier,monospace" font-size="11.00">ArgumentBag</text>
</g>
<!-- \\Teknoo\\Paypal\\Express\\Transport\\ArgumentBagInterface -->
<g id="node5" class="node"><title>\\Teknoo\\Paypal\\Express\\Transport\\ArgumentBagInterface</title>
<polygon fill="none" stroke="black" points="220,-272 68,-272 68,-236 220,-236 220,-272"/>
<text text-anchor="middle" x="144" y="-251.2" font-family="Courier,monospace" font-size="11.00">ArgumentBagInterface</text>
</g>
<!-- \\Teknoo\\Paypal\\Express\\Transport\\ArgumentBag&#45;&gt;\\Teknoo\\Paypal\\Express\\Transport\\ArgumentBagInterface -->
<g id="edge4" class="edge"><title>\\Teknoo\\Paypal\\Express\\Transport\\ArgumentBag&#45;&gt;\\Teknoo\\Paypal\\Express\\Transport\\ArgumentBagInterface</title>
<path fill="none" stroke="black" stroke-dasharray="1,5" d="M331.864,-254C303.045,-254 264.622,-254 230.113,-254"/>
<polygon fill="none" stroke="black" points="230.022,-250.5 220.022,-254 230.021,-257.5 230.022,-250.5"/>
</g>
<!-- \\Teknoo\\Paypal\\Express\\Service\\ExpressCheckout -->
<g id="node7" class="node"><title>\\Teknoo\\Paypal\\Express\\Service\\ExpressCheckout</title>
<polygon fill="none" stroke="black" points="436.5,-192 318.5,-192 318.5,-156 436.5,-156 436.5,-192"/>
<text text-anchor="middle" x="377.5" y="-171.2" font-family="Courier,monospace" font-size="11.00">ExpressCheckout</text>
</g>
<!-- \\Teknoo\\Paypal\\Express\\Service\\ServiceInterface -->
<g id="node10" class="node"><title>\\Teknoo\\Paypal\\Express\\Service\\ServiceInterface</title>
<polygon fill="none" stroke="black" points="206.5,-192 81.5,-192 81.5,-156 206.5,-156 206.5,-192"/>
<text text-anchor="middle" x="144" y="-171.2" font-family="Courier,monospace" font-size="11.00">ServiceInterface</text>
</g>
<!-- \\Teknoo\\Paypal\\Express\\Service\\ExpressCheckout&#45;&gt;\\Teknoo\\Paypal\\Express\\Service\\ServiceInterface -->
<g id="edge2" class="edge"><title>\\Teknoo\\Paypal\\Express\\Service\\ExpressCheckout&#45;&gt;\\Teknoo\\Paypal\\Express\\Service\\ServiceInterface</title>
<path fill="none" stroke="black" stroke-dasharray="1,5" d="M318.382,-174C287.684,-174 249.727,-174 217.16,-174"/>
<polygon fill="none" stroke="black" points="216.792,-170.5 206.792,-174 216.792,-177.5 216.792,-170.5"/>
</g>
<!-- \\Teknoo\\Paypal\\Express\\Service\\TransactionResult -->
<g id="node8" class="node"><title>\\Teknoo\\Paypal\\Express\\Service\\TransactionResult</title>
<polygon fill="none" stroke="black" points="443,-138 312,-138 312,-102 443,-102 443,-138"/>
<text text-anchor="middle" x="377.5" y="-117.2" font-family="Courier,monospace" font-size="11.00">TransactionResult</text>
</g>
<!-- \\Teknoo\\Paypal\\Express\\Service\\TransactionResultInterface -->
<g id="node11" class="node"><title>\\Teknoo\\Paypal\\Express\\Service\\TransactionResultInterface</title>
<polygon fill="none" stroke="black" points="240,-138 48,-138 48,-102 240,-102 240,-138"/>
<text text-anchor="middle" x="144" y="-117.2" font-family="Courier,monospace" font-size="11.00">TransactionResultInterface</text>
</g>
<!-- \\Teknoo\\Paypal\\Express\\Service\\TransactionResult&#45;&gt;\\Teknoo\\Paypal\\Express\\Service\\TransactionResultInterface -->
<g id="edge3" class="edge"><title>\\Teknoo\\Paypal\\Express\\Service\\TransactionResult&#45;&gt;\\Teknoo\\Paypal\\Express\\Service\\TransactionResultInterface</title>
<path fill="none" stroke="black" stroke-dasharray="1,5" d="M311.707,-120C292.625,-120 271.234,-120 250.303,-120"/>
<polygon fill="none" stroke="black" points="250.077,-116.5 240.077,-120 250.077,-123.5 250.077,-116.5"/>
</g>
<!-- \\Teknoo\\Paypal\\Express\\Service\\Error -->
<g id="node9" class="node"><title>\\Teknoo\\Paypal\\Express\\Service\\Error</title>
<polygon fill="none" stroke="black" points="404.5,-84 350.5,-84 350.5,-48 404.5,-48 404.5,-84"/>
<text text-anchor="middle" x="377.5" y="-63.2" font-family="Courier,monospace" font-size="11.00">Error</text>
</g>
<!-- \\Teknoo\\Paypal\\Express\\Service\\ErrorInterface -->
<g id="node12" class="node"><title>\\Teknoo\\Paypal\\Express\\Service\\ErrorInterface</title>
<polygon fill="none" stroke="black" points="199.5,-84 88.5,-84 88.5,-48 199.5,-48 199.5,-84"/>
<text text-anchor="middle" x="144" y="-63.2" font-family="Courier,monospace" font-size="11.00">ErrorInterface</text>
</g>
<!-- \\Teknoo\\Paypal\\Express\\Service\\Error&#45;&gt;\\Teknoo\\Paypal\\Express\\Service\\ErrorInterface -->
<g id="edge5" class="edge"><title>\\Teknoo\\Paypal\\Express\\Service\\Error&#45;&gt;\\Teknoo\\Paypal\\Express\\Service\\ErrorInterface</title>
<path fill="none" stroke="black" stroke-dasharray="1,5" d="M350.394,-66C316.644,-66 256.696,-66 210.246,-66"/>
<polygon fill="none" stroke="black" points="209.955,-62.5001 199.955,-66 209.955,-69.5001 209.955,-62.5001"/>
</g>
</g>
</svg>
